# xmcd
#
# Track frame offsets: 
#        150
#        16596
#        30968
#        39256
#        55687
#        71558
#        82118
#        95388
#        111877
#        136265
#        152804
#        175546
#        195732
#        213534
#        229918
#
# Disc length: 3303 seconds
#
# Revision: 1
# Processed by: cddbd v1.5.2PL0 Copyright (c) Steve Scherf et al.
# Submitted via: ExactAudioCopyFreeDBPlugin 1.0
#
DISCID=b80ce50f
DTITLE=Sleepy John Esters - John Henry Barbee - Blues Live!
DYEAR=1967
DGENRE=Blues
TTITLE0=Sleepy John Esters - Drop Down Mama
TTITLE1=Sleepy John Esters - I´d Been Well Warned
TTITLE2=Sleepy John Esters - Stop That Thing
TTITLE3=Sleepy John Esters - Diving Duck Blues
TTITLE4=Sleepy John Esters - Vernita Blues
TTITLE5=Sleepy John Esters - Bottle Up And Go
TTITLE6=Sleepy John Esters - Mountain Cat Blues
TTITLE7=John Henry Barbee - Hey Woman
TTITLE8=John Henry Barbee - Back Walter Blues
TTITLE9=John Henry Barbee - Boll Weavil
TTITLE10=John Henry Barbee - Somebody Done Change The Lock On My Door
TTITLE11=John Henry Barbee - That´s All Right
TTITLE12=John Henry Barbee - Tell Me Baby
TTITLE13=John Henry Barbee - John Henry
TTITLE14=John Henry Barbee - Dust My Broom
EXTD=YEAR: 1967 ID3G: 0
EXTT0=
EXTT1=
EXTT2=
EXTT3=
EXTT4=
EXTT5=
EXTT6=
EXTT7=
EXTT8=
EXTT9=
EXTT10=
EXTT11=
EXTT12=
EXTT13=
EXTT14=
PLAYORDER=
